<svg height="400" node-id="1" sillyvg="true" template-height="600" template-width="600" version="1.1" viewBox="0 0 600 600" width="400" xmlns="http://www.w3.org/2000/svg" xmlns:xlink="http://www.w3.org/1999/xlink"><defs node-id="157"></defs><g node-id="159"><g node-id="172"><path d="M 260.60 433.90 L 188.50 433.90 L 182.50 434.10 L 175.40 435.10 L 171.90 436.60 L 171.10 437.90 L 171.30 438.90 L 172.40 439.90 L 175.70 441.80 L 175.80 442.10 L 175.30 442.40 L 170.50 443.20 L 153.60 444.70 L 145.50 446.10 L 141.40 447.50 L 140.30 448.30 L 138.90 450.30 L 139.50 451.80 L 140.50 452.60 L 144.90 454.20 L 154.70 455.50 L 167.00 455.90 L 304.40 455.90 L 307.80 455.60 L 310.10 455.10 L 311.70 454.30 L 312.90 453.20 L 313.50 452.00 L 313.70 450.70 L 313.40 449.40 L 311.60 446.90 L 310.20 445.90 L 308.50 445.10 L 304.80 444.10 L 314.50 443.90 L 321.80 443.40 L 325.30 442.90 L 328.00 442.20 L 330.50 440.80 L 330.80 440.20 L 330.70 439.60 L 330.00 438.90 L 327.90 438.00 L 324.10 437.10 L 316.80 436.00 L 308.20 435.20 L 280.50 434.10 L 260.60 433.90 Z" fill="#99adf9" fill-rule="nonzero" group-id="1,14" id="XMLID_222_" node-id="4" stroke="none" target-height="22" target-width="191.9" target-x="138.9" target-y="433.9"/><path d="M 365.80 452.20 L 363.60 453.80 L 359.00 455.10 L 353.30 455.50 L 340.30 455.30 L 332.10 454.30 L 329.20 453.40 L 327.60 452.50 L 326.70 451.50 L 326.40 450.30 L 326.60 449.60 L 327.40 448.90 L 331.40 447.70 L 338.80 447.00 L 351.00 447.00 L 357.30 447.50 L 363.10 448.80 L 364.60 449.50 L 365.70 450.50 L 366.10 451.40 L 365.80 452.20 Z" fill="#c5d3ff" fill-rule="nonzero" group-id="1,14" id="XMLID_383_" node-id="5" stroke="none" target-height="8.5" target-width="39.700012" target-x="326.4" target-y="447"/><path d="M 158.60 438.20 L 157.80 439.00 L 156.30 439.80 L 153.90 440.30 L 144.00 440.90 L 135.00 440.40 L 131.80 439.20 L 130.90 437.70 L 131.50 436.70 L 134.30 435.70 L 142.40 434.90 L 148.00 434.90 L 152.50 435.10 L 155.80 435.60 L 157.70 436.30 L 158.50 437.00 L 158.80 437.60 L 158.60 438.20 Z" fill="#c5d3ff" fill-rule="nonzero" group-id="1,14" id="XMLID_387_" node-id="6" stroke="none" target-height="6" target-width="27.90001" target-x="130.9" target-y="434.9"/></g></g><g node-id="160"><g node-id="173"><g node-id="184"><path d="M 510.70 431.40 L 475.00 431.40 L 473.60 431.20 L 471.40 429.90 L 470.10 427.70 L 469.90 426.30 L 469.90 389.40 L 470.60 386.80 L 472.40 385.00 L 473.60 384.50 L 510.70 384.30 L 512.10 384.50 L 514.30 385.80 L 515.60 388.00 L 515.80 389.40 L 515.80 426.30 L 515.60 427.70 L 514.30 429.90 L 512.10 431.20 L 510.70 431.40 Z" fill="#c5dfff" fill-rule="nonzero" group-id="2,15,26" id="XMLID_157_" node-id="10" stroke="none" target-height="47.100006" target-width="45.899994" target-x="469.9" target-y="384.3"/><path d="M 509.00 429.70 L 474.70 429.70 L 473.40 429.50 L 471.20 428.30 L 470.00 426.10 L 469.80 424.80 L 469.80 389.20 L 470.50 386.70 L 472.20 385.00 L 473.40 384.50 L 509.00 384.30 L 510.30 384.50 L 512.50 385.70 L 513.70 387.90 L 513.90 389.20 L 513.90 424.80 L 513.70 426.10 L 512.50 428.30 L 510.30 429.50 L 509.00 429.70 Z" fill="#e1ecff" fill-rule="nonzero" group-id="2,15,26" id="XMLID_159_" node-id="11" stroke="none" target-height="45.400024" target-width="44.100037" target-x="469.8" target-y="384.3"/></g><path d="M 506.60 407.40 L 506.40 410.00 L 505.70 412.40 L 504.60 414.70 L 503.20 416.70 L 501.50 418.40 L 499.50 419.80 L 497.20 420.90 L 494.80 421.60 L 492.20 421.80 L 489.60 421.60 L 487.20 420.90 L 484.90 419.80 L 482.90 418.40 L 481.20 416.70 L 479.80 414.70 L 478.70 412.40 L 478.00 410.00 L 477.80 407.40 L 478.00 404.80 L 478.70 402.40 L 479.80 400.10 L 481.20 398.10 L 482.90 396.40 L 484.90 395.00 L 487.20 393.90 L 489.60 393.20 L 492.20 393.00 L 494.80 393.20 L 497.20 393.90 L 499.50 395.00 L 501.50 396.40 L 503.20 398.10 L 504.60 400.10 L 505.70 402.40 L 506.40 404.80 L 506.60 407.40 Z" fill="#c5dfff" fill-rule="nonzero" group-id="2,15" id="XMLID_160_" node-id="12" stroke="none" target-height="28.799988" target-width="28.800018" target-x="477.8" target-y="393"/><g node-id="185"><path d="M 486.50 413.90 L 485.90 413.60 L 485.60 413.00 L 485.60 401.90 L 485.90 401.30 L 486.50 401.00 L 487.10 401.30 L 487.40 401.90 L 487.40 413.00 L 487.10 413.60 L 486.50 413.90 Z" fill="#1c3177" fill-rule="nonzero" group-id="2,15,27" id="XMLID_161_" node-id="14" stroke="none" target-height="12.899994" target-width="1.7999878" target-x="485.6" target-y="401"/><path d="M 496.90 413.90 L 496.30 413.60 L 496.00 413.00 L 496.00 401.90 L 496.30 401.30 L 496.90 401.00 L 497.50 401.30 L 497.80 401.90 L 497.80 413.00 L 497.50 413.60 L 496.90 413.90 Z" fill="#1c3177" fill-rule="nonzero" group-id="2,15,27" id="XMLID_165_" node-id="15" stroke="none" target-height="12.899994" target-width="1.7999878" target-x="496" target-y="401"/></g></g></g><g node-id="161"><g node-id="174"><g node-id="186"><path d="M 405.00 369.00 L 399.10 368.50 L 395.50 367.90 L 388.70 365.80 L 385.30 364.10 L 381.80 361.90 L 378.60 359.40 L 371.20 351.90 L 363.60 342.10 L 359.00 335.40 L 354.70 328.30 L 351.00 321.20 L 341.00 299.20 L 335.00 287.50 L 329.30 279.70 L 324.10 274.80 L 317.90 271.00 L 313.60 269.40 L 309.50 268.30 L 305.60 267.90 L 301.60 267.90 L 294.30 269.00 L 289.20 270.60 L 281.20 274.30 L 275.60 278.00 L 274.00 277.80 L 273.40 277.30 L 272.90 275.80 L 273.70 274.40 L 279.40 270.60 L 283.60 268.50 L 288.20 266.50 L 293.70 264.90 L 297.50 264.10 L 301.60 263.80 L 306.00 263.80 L 310.30 264.30 L 314.90 265.50 L 319.60 267.30 L 323.20 269.20 L 326.50 271.50 L 332.10 276.70 L 336.90 283.00 L 340.00 288.10 L 342.90 293.70 L 354.60 319.30 L 358.20 326.20 L 362.40 333.10 L 368.70 342.10 L 373.90 348.70 L 377.50 352.60 L 383.80 358.10 L 390.20 361.80 L 393.20 363.00 L 398.00 364.20 L 403.20 364.80 L 406.70 364.80 L 409.70 364.30 L 412.30 363.50 L 414.80 362.20 L 419.30 359.00 L 427.90 349.70 L 430.90 346.80 L 433.70 344.60 L 438.80 341.60 L 442.50 340.00 L 447.90 338.60 L 449.40 339.00 L 450.00 339.50 L 450.20 341.10 L 449.30 342.40 L 443.90 343.90 L 437.30 347.20 L 433.60 349.90 L 430.90 352.60 L 422.10 361.90 L 417.50 365.50 L 411.90 368.00 L 408.70 368.70 L 405.00 369.00 Z" fill="#1c3177" fill-rule="nonzero" group-id="3,16,28" id="XMLID_384_" node-id="19" stroke="none" target-height="105.20001" target-width="177.30002" target-x="272.9" target-y="263.8"/></g><g node-id="187"><path d="M 463.20 331.70 L 471.60 324.60 L 473.10 324.10 L 474.40 324.90 L 474.80 326.20 L 474.10 327.50 L 465.60 335.00 L 463.20 331.70 Z" fill="#1c3177" fill-rule="nonzero" group-id="3,16,29" id="XMLID_153_" node-id="21" stroke="none" target-height="10.899994" target-width="11.599976" target-x="463.2" target-y="324.1"/><path d="M 458.00 325.70 L 466.40 318.60 L 467.90 318.10 L 469.20 318.90 L 469.60 320.20 L 468.90 321.50 L 460.40 329.00 L 458.00 325.70 Z" fill="#1c3177" fill-rule="nonzero" group-id="3,16,29" id="XMLID_156_" node-id="22" stroke="none" target-height="10.899994" target-width="11.600006" target-x="458" target-y="318.1"/><path d="M 469.10 335.40 L 460.70 343.80 L 457.10 346.00 L 455.30 346.60 L 451.70 346.80 L 448.40 345.80 L 446.00 344.00 L 444.40 341.50 L 443.80 339.50 L 443.70 337.40 L 444.10 335.30 L 445.00 333.30 L 446.70 331.40 L 457.60 322.20 L 469.10 335.40 Z" fill="#e1ecff" fill-rule="nonzero" group-id="3,16,29" id="XMLID_164_" node-id="23" stroke="none" target-height="24.599976" target-width="25.399994" target-x="443.7" target-y="322.2"/><path d="M 469.10 335.40 L 460.70 343.80 L 457.10 346.00 L 455.30 346.60 L 451.70 346.80 L 448.40 345.80 L 446.00 344.00 L 445.50 343.40 L 450.10 342.80 L 452.80 342.00 L 455.70 340.40 L 460.80 336.40 L 465.70 331.70 L 469.10 335.40 Z" fill="#c5dfff" fill-rule="nonzero" group-id="3,16,29" id="XMLID_162_" node-id="24" stroke="none" target-height="15.099976" target-width="23.600006" target-x="445.5" target-y="331.7"/></g></g></g><g node-id="162"><g node-id="175"><g node-id="188"><path d="M 316.10 412.00 L 313.50 411.60 L 310.50 410.50 L 307.40 408.90 L 300.30 404.50 L 290.80 396.80 L 286.70 392.40 L 284.50 389.20 L 281.60 383.40 L 280.90 379.10 L 281.20 377.00 L 282.10 375.10 L 283.60 373.20 L 286.30 371.70 L 288.10 371.20 L 290.20 371.00 L 292.50 371.30 L 294.70 372.00 L 298.40 374.30 L 305.70 381.50 L 311.00 387.60 L 317.70 396.50 L 320.60 402.00 L 321.30 405.00 L 321.50 407.00 L 321.20 408.60 L 320.60 409.90 L 319.60 411.00 L 318.20 411.70 L 316.10 412.00 Z" fill="#1c3177" fill-rule="nonzero" group-id="4,17,30" id="XMLID_223_" node-id="28" stroke="none" target-height="41" target-width="40.600006" target-x="280.9" target-y="371"/><path d="M 316.10 412.00 L 317.40 410.70 L 317.90 409.80 L 318.60 407.20 L 318.40 405.70 L 317.80 403.60 L 316.20 400.40 L 313.40 395.90 L 309.70 391.00 L 300.80 380.60 L 295.00 375.40 L 290.90 372.70 L 288.10 371.20 L 290.20 371.00 L 292.50 371.30 L 294.70 372.00 L 298.40 374.30 L 305.70 381.50 L 311.00 387.60 L 317.70 396.50 L 320.60 402.00 L 321.30 405.00 L 321.50 407.00 L 321.20 408.60 L 320.60 409.90 L 319.60 411.00 L 318.20 411.70 L 316.10 412.00 Z" fill="#384d89" fill-rule="nonzero" group-id="4,17,30" id="XMLID_221_" node-id="29" stroke="none" target-height="41" target-width="33.399994" target-x="288.1" target-y="371"/><path d="M 282.30 377.50 L 283.60 376.20 L 284.70 375.80 L 286.60 375.90 L 289.00 376.60 L 291.50 378.00 L 294.10 380.10 L 298.10 384.50 L 302.00 389.80 L 304.60 394.90 L 305.10 397.80 L 304.80 398.90 L 304.00 400.00 L 302.90 400.60 L 301.40 400.80 L 299.80 400.50 L 295.90 398.70 L 292.90 396.60 L 289.80 393.90 L 287.00 390.80 L 284.80 387.90 L 283.20 385.20 L 282.00 381.00 L 282.30 377.50 Z" fill="#142966" fill-rule="nonzero" group-id="4,17,30" id="XMLID_213_" node-id="30" stroke="none" target-height="25" target-width="23.100006" target-x="282" target-y="375.8"/></g><g node-id="189"><g node-id="201"><path d="M 294.90 390.00 L 294.60 392.30 L 293.50 395.20 L 291.40 396.00 L 285.30 397.60 L 281.10 398.30 L 272.20 398.60 L 263.60 397.70 L 254.30 395.40 L 249.10 393.50 L 244.00 391.20 L 238.70 388.20 L 232.90 384.50 L 227.80 380.70 L 219.50 373.30 L 212.00 364.60 L 208.60 359.80 L 206.00 355.30 L 201.90 346.40 L 199.40 337.50 L 198.50 330.50 L 201.60 327.90 L 204.50 325.90 L 207.40 324.70 L 213.30 323.30 L 216.00 323.30 L 220.10 323.80 L 223.80 324.90 L 230.10 327.90 L 235.90 332.20 L 237.10 338.70 L 238.40 343.30 L 240.10 348.20 L 242.50 353.70 L 245.10 358.30 L 248.30 362.80 L 250.70 365.60 L 256.50 370.40 L 260.60 372.80 L 264.60 374.60 L 268.30 376.00 L 274.00 377.40 L 278.80 378.00 L 283.20 378.20 L 289.10 377.70 L 290.00 378.20 L 292.00 380.20 L 293.10 382.00 L 294.60 386.20 L 294.90 390.00 Z" fill="#e1ecff" fill-rule="nonzero" group-id="4,17,31,43" id="XMLID_240_" node-id="33" stroke="none" target-height="75.30002" target-width="96.399994" target-x="198.5" target-y="323.3"/><path d="M 294.90 390.00 L 294.60 392.30 L 293.50 395.20 L 289.00 396.80 L 281.10 398.30 L 275.80 398.70 L 268.10 398.30 L 263.60 397.70 L 254.30 395.40 L 249.10 393.50 L 244.00 391.20 L 238.70 388.20 L 232.90 384.50 L 227.80 380.70 L 219.50 373.30 L 212.00 364.60 L 208.60 359.80 L 206.00 355.30 L 203.70 350.50 L 200.70 342.80 L 199.40 337.50 L 198.50 330.50 L 201.60 327.90 L 204.50 325.90 L 207.40 324.70 L 210.40 323.80 L 216.00 323.30 L 220.10 323.80 L 223.80 324.90 L 230.10 327.90 L 235.90 332.20 L 237.10 338.70 L 238.40 343.30 L 240.10 348.20 L 242.50 353.70 L 238.10 356.60 L 233.80 358.60 L 228.40 359.70 L 222.40 360.20 L 226.60 365.60 L 229.90 369.40 L 233.90 373.30 L 238.80 377.60 L 246.10 382.80 L 250.30 385.20 L 254.70 387.30 L 259.40 388.90 L 264.30 390.10 L 271.10 391.00 L 282.20 391.40 L 289.50 390.90 L 294.90 390.00 Z" fill="#c5dfff" fill-rule="nonzero" group-id="4,17,31,43" id="XMLID_238_" node-id="34" stroke="none" target-height="75.400024" target-width="96.399994" target-x="198.5" target-y="323.3"/></g><g node-id="202"><g node-id="215"><path d="M 257.20 395.10 L 256.50 394.90 L 256.00 394.20 L 256.00 393.20 L 261.40 389.60 L 262.80 388.00 L 263.90 386.00 L 264.70 381.90 L 264.10 377.40 L 264.90 376.20 L 265.90 376.20 L 266.60 376.90 L 267.20 379.80 L 267.00 384.20 L 266.30 386.90 L 265.40 388.70 L 263.20 391.40 L 261.20 393.00 L 257.20 395.10 Z" fill="#c5dfff" fill-rule="nonzero" group-id="4,17,31,44,57" id="XMLID_408_" node-id="37" stroke="none" target-height="18.899994" target-width="11.200012" target-x="256" target-y="376.2"/></g><path d="M 234.00 384.80 L 232.80 384.10 L 232.80 383.10 L 233.40 382.40 L 237.80 381.40 L 240.20 380.50 L 243.20 378.50 L 244.50 377.10 L 246.90 372.60 L 247.50 370.60 L 247.80 367.20 L 248.50 366.40 L 249.00 366.30 L 250.00 366.60 L 250.40 367.50 L 250.10 371.00 L 248.40 375.90 L 246.60 378.70 L 244.80 380.60 L 240.80 383.00 L 238.80 383.80 L 234.00 384.80 Z" fill="#c5dfff" fill-rule="nonzero" group-id="4,17,31,44,58" id="XMLID_407_" node-id="39" stroke="none" target-height="18.5" target-width="17.59999" target-x="232.8" target-y="366.3"/></g></g></g></g><g node-id="163"><g node-id="176"><g node-id="190"><path d="M 186.60 365.90 L 185.00 368.60 L 182.90 370.70 L 180.80 372.00 L 177.20 373.20 L 172.30 367.80 L 164.70 358.10 L 160.10 351.30 L 155.60 343.90 L 150.80 335.10 L 147.40 327.70 L 144.70 320.30 L 142.50 313.00 L 139.60 299.60 L 138.70 294.20 L 137.60 282.80 L 140.80 281.30 L 143.60 280.40 L 148.80 279.90 L 153.10 280.50 L 158.20 282.60 L 159.60 296.80 L 160.70 303.40 L 162.30 311.00 L 164.40 318.70 L 167.20 326.70 L 170.50 334.30 L 173.80 340.80 L 180.40 351.30 L 187.40 360.10 L 187.30 363.60 L 186.60 365.90 Z" fill="#e1ecff" fill-rule="nonzero" group-id="5,18,32" id="XMLID_201_" node-id="43" stroke="none" target-height="93.30002" target-width="49.799988" target-x="137.6" target-y="279.9"/><path d="M 186.60 365.90 L 181.00 360.20 L 177.70 356.10 L 173.70 350.50 L 169.90 344.10 L 165.70 335.90 L 162.30 328.00 L 159.50 319.70 L 155.10 303.50 L 152.40 289.60 L 151.10 280.10 L 154.90 281.00 L 158.30 282.60 L 159.70 296.80 L 160.80 303.40 L 162.40 311.00 L 164.50 318.70 L 167.30 326.70 L 170.60 334.30 L 173.90 340.80 L 180.50 351.30 L 187.50 360.10 L 187.30 363.60 L 186.60 365.90 Z" fill="#f8fbff" fill-rule="nonzero" group-id="5,18,32" id="XMLID_198_" node-id="44" stroke="none" target-height="85.79999" target-width="36.399994" target-x="151.1" target-y="280.1"/><path d="M 180.80 372.00 L 177.20 373.20 L 168.60 363.30 L 160.10 351.30 L 155.60 343.90 L 150.80 335.10 L 147.40 327.70 L 144.70 320.30 L 142.50 313.00 L 140.80 306.20 L 138.70 294.20 L 137.60 282.80 L 140.80 281.30 L 142.30 294.00 L 144.80 306.70 L 148.80 321.20 L 151.60 328.60 L 154.90 336.00 L 158.80 343.10 L 163.80 350.90 L 171.60 361.80 L 177.10 368.20 L 180.80 372.00 Z" fill="#c5dfff" fill-rule="nonzero" group-id="5,18,32" id="XMLID_197_" node-id="45" stroke="none" target-height="91.900024" target-width="43.199997" target-x="137.6" target-y="281.3"/></g><g node-id="191"><g node-id="203"><path d="M 208.70 386.40 L 205.50 387.70 L 203.00 388.30 L 200.40 388.50 L 197.40 388.10 L 193.20 386.90 L 189.00 384.70 L 188.20 383.00 L 188.00 380.90 L 188.50 380.00 L 189.70 379.10 L 193.20 377.80 L 196.60 380.10 L 199.40 381.50 L 205.80 382.00 L 208.30 382.60 L 209.00 383.60 L 209.10 384.80 L 208.70 386.40 Z" fill="#e1ecff" fill-rule="nonzero" group-id="5,18,33,45" id="XMLID_205_" node-id="48" stroke="none" target-height="10.700012" target-width="21.100006" target-x="188" target-y="377.8"/><path d="M 208.70 386.40 L 205.50 387.70 L 203.00 388.30 L 200.40 388.50 L 197.40 388.10 L 193.20 386.90 L 189.00 384.70 L 188.20 383.00 L 188.00 380.90 L 188.50 380.00 L 192.80 383.40 L 197.20 385.50 L 199.60 386.00 L 202.60 386.10 L 205.10 385.90 L 209.10 384.80 L 208.70 386.40 Z" fill="#c5dfff" fill-rule="nonzero" group-id="5,18,33,45" id="XMLID_204_" node-id="49" stroke="none" target-height="8.5" target-width="21.100006" target-x="188" target-y="380"/></g><g node-id="204"><path d="M 206.80 383.60 L 204.20 383.80 L 200.10 383.40 L 197.30 382.50 L 193.20 380.30 L 191.20 378.10 L 192.10 375.30 L 193.40 374.20 L 195.40 373.90 L 196.80 374.20 L 199.40 375.60 L 201.60 376.00 L 205.00 375.90 L 210.10 374.10 L 214.10 371.50 L 215.40 371.30 L 216.90 372.90 L 217.30 374.10 L 217.10 376.40 L 216.40 377.60 L 213.50 380.50 L 211.50 381.80 L 209.30 382.90 L 206.80 383.60 Z" fill="#e1ecff" fill-rule="nonzero" group-id="5,18,33,46" id="XMLID_202_" node-id="51" stroke="none" target-height="12.5" target-width="26.100006" target-x="191.2" target-y="371.3"/><path d="M 206.80 383.60 L 204.20 383.80 L 200.10 383.40 L 195.10 381.50 L 193.20 380.30 L 191.20 378.10 L 191.60 376.00 L 192.70 374.60 L 195.90 377.40 L 198.10 378.70 L 200.60 379.80 L 204.10 380.40 L 206.00 380.20 L 211.00 378.50 L 214.90 376.20 L 217.40 374.10 L 217.20 376.40 L 215.10 379.00 L 211.50 381.80 L 209.30 382.90 L 206.80 383.60 Z" fill="#c5dfff" fill-rule="nonzero" group-id="5,18,33,46" id="XMLID_200_" node-id="52" stroke="none" target-height="9.699982" target-width="26.199997" target-x="191.2" target-y="374.1"/></g><g node-id="205"><path d="M 205.70 377.00 L 203.20 377.20 L 199.30 376.80 L 196.70 376.00 L 192.80 373.80 L 190.90 371.80 L 191.00 371.20 L 191.70 369.10 L 193.00 368.00 L 193.80 367.70 L 196.20 368.00 L 198.70 369.30 L 200.80 369.70 L 204.00 369.60 L 208.90 367.90 L 213.20 365.10 L 213.90 365.20 L 215.30 366.70 L 215.70 367.90 L 215.50 370.10 L 214.80 371.20 L 212.10 374.00 L 210.20 375.30 L 208.10 376.40 L 205.70 377.00 Z" fill="#e1ecff" fill-rule="nonzero" group-id="5,18,33,47" id="XMLID_196_" node-id="54" stroke="none" target-height="12.100006" target-width="24.800003" target-x="190.9" target-y="365.1"/><path d="M 205.70 377.00 L 203.20 377.20 L 199.30 376.80 L 196.70 376.00 L 192.80 373.80 L 190.90 371.80 L 191.30 369.80 L 192.30 368.40 L 195.30 371.00 L 197.40 372.30 L 199.70 373.30 L 203.10 373.90 L 204.90 373.70 L 209.70 372.10 L 213.30 369.90 L 215.70 367.90 L 215.50 370.10 L 213.60 372.70 L 210.20 375.30 L 208.10 376.40 L 205.70 377.00 Z" fill="#c5dfff" fill-rule="nonzero" group-id="5,18,33,47" id="XMLID_195_" node-id="55" stroke="none" target-height="9.300018" target-width="24.800003" target-x="190.9" target-y="367.9"/></g><g node-id="206"><path d="M 205.00 372.00 L 201.80 372.70 L 199.20 372.80 L 196.80 372.40 L 193.00 371.00 L 191.10 369.50 L 191.50 367.00 L 192.70 365.80 L 195.50 365.40 L 197.90 366.20 L 201.90 366.00 L 204.50 365.00 L 206.90 363.60 L 210.40 360.50 L 211.00 360.50 L 212.50 361.60 L 213.00 362.60 L 213.10 364.60 L 212.60 365.70 L 210.40 368.50 L 208.80 369.90 L 205.00 372.00 Z" fill="#e1ecff" fill-rule="nonzero" group-id="5,18,33,48" id="XMLID_208_" node-id="57" stroke="none" target-height="12.299988" target-width="22" target-x="191.1" target-y="360.5"/><path d="M 205.00 372.00 L 201.80 372.70 L 199.20 372.80 L 194.80 371.80 L 193.00 371.00 L 191.10 369.50 L 191.20 367.70 L 192.00 366.30 L 197.00 369.10 L 199.20 369.70 L 201.50 369.80 L 203.90 369.30 L 207.20 367.70 L 209.70 366.00 L 212.90 362.60 L 213.00 364.60 L 211.60 367.10 L 208.80 369.90 L 205.00 372.00 Z" fill="#c5dfff" fill-rule="nonzero" group-id="5,18,33,48" id="XMLID_207_" node-id="58" stroke="none" target-height="10.199982" target-width="21.899994" target-x="191.1" target-y="362.6"/></g><path d="M 201.50 367.20 L 200.50 371.20 L 199.00 375.40 L 196.70 379.50 L 194.30 382.10 L 192.20 383.70 L 189.10 385.10 L 179.20 375.20 L 175.20 370.20 L 174.90 366.70 L 175.20 364.40 L 176.50 360.80 L 177.30 359.80 L 179.20 358.30 L 180.90 357.70 L 184.10 357.50 L 186.30 357.90 L 201.50 367.20 Z" fill="#e1ecff" fill-rule="nonzero" group-id="5,18,33" id="XMLID_399_" node-id="59" stroke="none" target-height="27.600006" target-width="26.600006" target-x="174.9" target-y="357.5"/><path d="M 201.50 367.20 L 200.50 371.20 L 187.60 362.90 L 179.20 358.30 L 182.50 357.40 L 186.30 357.90 L 201.50 367.20 Z" fill="#f8fbff" fill-rule="nonzero" group-id="5,18,33" id="XMLID_393_" node-id="60" stroke="none" target-height="13.800018" target-width="22.300003" target-x="179.2" target-y="357.4"/><path d="M 194.30 382.00 L 192.20 383.60 L 189.10 385.00 L 179.20 375.10 L 175.20 370.10 L 174.90 366.60 L 175.20 364.30 L 182.80 372.30 L 187.70 376.90 L 194.30 382.00 Z" fill="#c5dfff" fill-rule="nonzero" group-id="5,18,33" id="XMLID_395_" node-id="61" stroke="none" target-height="20.700012" target-width="19.40001" target-x="174.9" target-y="364.3"/></g><g node-id="192"><g node-id="207"><path d="M 165.70 356.40 L 163.90 356.10 L 162.80 355.50 L 162.60 354.60 L 163.00 353.70 L 163.80 353.40 L 166.20 353.90 L 167.60 353.80 L 170.90 352.50 L 173.70 350.00 L 174.90 347.90 L 175.40 346.50 L 176.10 346.00 L 177.00 346.20 L 177.60 347.50 L 176.70 350.00 L 174.30 353.10 L 172.20 354.80 L 170.20 355.70 L 168.50 356.20 L 165.70 356.40 Z" fill="#c5dfff" fill-rule="nonzero" group-id="5,18,34,49" id="XMLID_389_" node-id="64" stroke="none" target-height="10.399994" target-width="15" target-x="162.6" target-y="346"/></g><g node-id="208"><path d="M 155.00 336.30 L 151.40 335.40 L 150.80 334.70 L 151.20 333.30 L 152.00 333.00 L 154.70 333.80 L 156.50 333.80 L 158.30 333.60 L 160.60 332.80 L 164.00 330.60 L 165.50 328.70 L 166.10 327.20 L 166.90 326.80 L 167.70 327.00 L 168.10 327.90 L 167.60 329.70 L 165.60 332.30 L 163.90 333.70 L 161.40 335.20 L 159.50 335.90 L 157.90 336.20 L 155.00 336.30 Z" fill="#c5dfff" fill-rule="nonzero" group-id="5,18,34,50" id="XMLID_388_" node-id="66" stroke="none" target-height="9.5" target-width="17.300003" target-x="150.8" target-y="326.8"/></g><path d="M 147.40 313.80 L 145.40 313.50 L 142.90 312.30 L 142.50 311.00 L 143.20 310.10 L 143.70 310.00 L 146.10 311.00 L 147.60 311.30 L 151.60 311.00 L 156.40 309.50 L 158.00 308.60 L 160.10 306.80 L 160.70 306.70 L 161.60 307.30 L 161.50 308.70 L 159.50 310.50 L 157.60 311.60 L 152.10 313.50 L 147.40 313.80 Z" fill="#c5dfff" fill-rule="nonzero" group-id="5,18,34,51" id="XMLID_386_" node-id="68" stroke="none" target-height="7.0999756" target-width="19.100006" target-x="142.5" target-y="306.7"/></g><g node-id="193"><path d="M 162.20 297.10 L 158.30 298.60 L 151.80 299.90 L 147.70 300.10 L 144.70 299.90 L 142.30 299.50 L 138.70 298.30 L 135.80 296.50 L 135.60 284.20 L 135.90 280.50 L 137.40 274.90 L 138.40 272.80 L 141.10 270.00 L 144.00 268.40 L 148.50 267.60 L 152.40 268.20 L 154.30 269.10 L 157.80 271.80 L 159.20 273.50 L 161.10 277.60 L 162.00 283.20 L 162.30 289.60 L 162.20 297.10 Z" fill="#1c3177" fill-rule="nonzero" group-id="5,18,35" id="XMLID_396_" node-id="70" stroke="none" target-height="32.5" target-width="26.699997" target-x="135.6" target-y="267.6"/><path d="M 149.90 279.10 L 146.90 280.40 L 144.80 280.90 L 143.00 281.00 L 141.00 280.30 L 139.50 288.40 L 138.60 298.30 L 135.70 296.50 L 135.50 284.20 L 135.80 280.50 L 137.30 274.90 L 138.30 272.80 L 141.00 270.00 L 143.90 268.40 L 146.30 267.80 L 148.40 267.60 L 152.30 268.20 L 153.70 271.50 L 153.90 273.50 L 153.50 275.50 L 151.70 277.90 L 149.90 279.10 Z" fill="#384d89" fill-rule="nonzero" group-id="5,18,35" id="XMLID_394_" node-id="71" stroke="none" target-height="30.699982" target-width="18.399994" target-x="135.5" target-y="267.6"/></g></g></g><g node-id="164"><g node-id="177"><g node-id="194"><path d="M 277.60 310.30 L 275.20 319.50 L 273.60 323.70 L 271.70 327.40 L 269.40 330.90 L 266.90 334.00 L 264.10 336.60 L 259.70 340.00 L 255.10 343.00 L 250.20 345.60 L 246.40 347.30 L 238.30 349.60 L 234.00 350.30 L 229.70 350.50 L 225.10 350.40 L 220.40 349.80 L 215.30 348.70 L 210.50 347.20 L 205.40 345.10 L 200.00 342.30 L 194.20 338.90 L 184.90 331.90 L 180.20 327.60 L 173.60 320.90 L 167.30 313.70 L 156.00 299.00 L 146.90 285.40 L 137.50 269.60 L 146.60 268.10 L 154.00 266.10 L 165.50 262.10 L 172.80 259.00 L 187.20 251.60 L 194.90 247.00 L 203.30 241.40 L 209.70 236.70 L 220.20 228.20 L 227.00 221.70 L 232.40 216.00 L 237.10 210.20 L 240.60 205.20 L 244.10 199.50 L 248.00 191.00 L 249.40 186.00 L 254.60 197.20 L 262.00 216.30 L 266.30 229.10 L 271.40 245.90 L 274.00 255.60 L 276.00 264.60 L 277.40 273.20 L 278.40 281.20 L 278.90 289.50 L 279.00 297.10 L 278.50 304.00 L 277.60 310.30 Z" fill="#e1ecff" fill-rule="nonzero" group-id="6,19,36" id="XMLID_142_" node-id="75" stroke="none" target-height="164.5" target-width="141.5" target-x="137.5" target-y="186"/><path d="M 254.60 197.20 L 249.00 207.00 L 244.90 213.10 L 240.60 218.70 L 235.30 224.80 L 229.50 230.70 L 217.80 240.80 L 206.50 248.80 L 198.20 253.90 L 190.80 258.20 L 176.80 265.00 L 168.10 268.60 L 160.90 271.00 L 154.00 272.90 L 148.70 274.00 L 140.50 275.00 L 137.40 269.50 L 146.50 268.00 L 153.90 266.00 L 165.40 262.00 L 172.70 258.90 L 187.00 251.50 L 194.80 246.90 L 203.20 241.30 L 209.60 236.60 L 220.10 228.10 L 226.90 221.60 L 232.30 215.90 L 237.00 210.10 L 240.50 205.10 L 244.00 199.40 L 247.90 190.90 L 249.30 185.90 L 254.60 197.20 Z" fill="#1c3177" fill-rule="nonzero" group-id="6,19,36" id="XMLID_143_" node-id="76" stroke="none" target-height="89.100006" target-width="117.20001" target-x="137.4" target-y="185.9"/><path d="M 276.60 314.90 L 275.20 319.50 L 271.70 327.40 L 269.40 330.90 L 266.90 334.00 L 264.10 336.60 L 259.70 340.00 L 255.10 343.00 L 250.20 345.60 L 242.50 348.60 L 238.30 349.60 L 229.70 350.50 L 225.10 350.40 L 220.40 349.80 L 215.30 348.70 L 210.50 347.20 L 205.40 345.10 L 200.00 342.30 L 194.20 338.90 L 189.50 335.60 L 180.20 327.60 L 173.60 320.90 L 167.30 313.70 L 156.00 299.00 L 146.90 285.40 L 137.50 269.60 L 146.60 268.10 L 154.00 266.10 L 165.50 262.10 L 172.80 259.00 L 179.10 268.40 L 191.90 286.20 L 202.20 298.80 L 207.50 304.80 L 213.10 310.50 L 218.60 315.60 L 222.00 318.30 L 225.30 320.50 L 231.70 323.60 L 236.20 324.90 L 240.60 325.70 L 244.80 325.90 L 253.20 325.10 L 257.20 324.20 L 262.90 322.30 L 268.00 320.00 L 276.60 314.90 Z" fill="#c5dfff" fill-rule="nonzero" group-id="6,19,36" id="XMLID_136_" node-id="77" stroke="none" target-height="91.5" target-width="139.1" target-x="137.5" target-y="259"/><path d="M 176.80 265.10 L 168.10 268.70 L 160.90 271.10 L 148.70 274.10 L 140.50 275.10 L 137.40 269.60 L 146.50 268.10 L 153.90 266.10 L 165.40 262.10 L 172.70 259.00 L 176.80 265.10 Z" fill="#142966" fill-rule="nonzero" group-id="6,19,36" id="XMLID_138_" node-id="78" stroke="none" target-height="16.100006" target-width="39.40001" target-x="137.4" target-y="259"/><path d="M 274.80 300.60 L 267.70 273.80 L 261.00 252.50 L 254.00 234.00 L 250.90 226.90 L 245.60 216.30 L 250.10 208.90 L 252.70 203.50 L 256.80 212.30 L 262.50 227.30 L 269.90 250.40 L 271.90 257.90 L 274.70 271.60 L 275.90 284.40 L 275.90 290.30 L 274.80 300.60 Z" fill="#f8fbff" fill-rule="nonzero" group-id="6,19,36" id="XMLID_137_" node-id="79" stroke="none" target-height="97.100006" target-width="30.299988" target-x="245.6" target-y="203.5"/><path d="M 254.60 197.20 L 249.00 207.00 L 244.90 213.10 L 240.60 205.10 L 244.10 199.40 L 246.30 195.00 L 248.00 190.90 L 249.40 185.90 L 254.60 197.20 Z" fill="#384d89" fill-rule="nonzero" group-id="6,19,36" id="XMLID_139_" node-id="80" stroke="none" target-height="27.200012" target-width="14" target-x="240.6" target-y="185.9"/></g><g node-id="195"><path d="M 223.30 309.00 L 216.90 313.10 L 204.70 319.50 L 196.00 323.40 L 181.40 328.80 L 173.90 321.20 L 162.20 307.30 L 152.20 293.50 L 146.80 285.40 L 162.30 280.50 L 169.20 277.90 L 185.20 270.90 L 190.30 268.30 L 198.50 263.60 L 223.30 309.00 Z" fill="#e1ecff" fill-rule="nonzero" group-id="6,19,37" id="XMLID_147_" node-id="82" stroke="none" target-height="65.19998" target-width="76.5" target-x="146.8" target-y="263.6"/><path d="M 220.50 308.90 L 214.60 312.80 L 203.40 318.70 L 195.20 322.20 L 180.10 327.60 L 173.80 321.20 L 162.10 307.30 L 156.90 300.40 L 148.00 287.40 L 153.40 285.90 L 170.10 280.10 L 177.80 276.90 L 197.80 267.60 L 220.50 308.90 Z" fill="#1c3177" fill-rule="nonzero" group-id="6,19,37" id="XMLID_145_" node-id="83" stroke="none" target-height="60" target-width="72.5" target-x="148" target-y="267.6"/><g node-id="210"><path d="M 175.90 312.80 L 175.00 312.50 L 164.00 302.70 L 163.00 305.30 L 162.10 305.70 L 161.10 305.30 L 160.70 304.40 L 160.80 303.90 L 162.20 299.90 L 163.10 299.00 L 164.40 299.30 L 174.10 307.90 L 173.60 304.00 L 173.70 303.10 L 174.40 302.60 L 207.50 288.30 L 208.00 288.20 L 209.00 288.50 L 209.40 289.50 L 209.10 290.50 L 208.60 290.80 L 176.40 304.70 L 177.30 311.20 L 177.20 312.00 L 175.90 312.80 Z" fill="#ffce94" fill-rule="nonzero" group-id="6,19,37,52" id="XMLID_385_" node-id="85" stroke="none" target-height="24.599976" target-width="48.699997" target-x="160.7" target-y="288.2"/></g></g><g node-id="196"><path d="M 249.40 186.00 L 247.40 192.90 L 244.90 198.30 L 240.10 206.50 L 236.40 211.60 L 228.80 220.40 L 223.80 225.40 L 218.50 230.10 L 212.20 235.10 L 204.80 240.40 L 188.90 250.40 L 182.00 254.20 L 171.80 259.20 L 163.30 262.80 L 155.30 265.60 L 143.80 268.70 L 137.40 269.60 L 131.00 257.10 L 128.30 250.90 L 122.60 235.30 L 120.00 226.40 L 117.40 214.00 L 116.50 207.50 L 116.00 201.00 L 116.00 194.50 L 116.40 188.00 L 117.10 183.00 L 118.20 178.40 L 121.20 170.00 L 125.30 162.60 L 128.00 158.90 L 131.00 155.60 L 137.70 149.80 L 142.50 146.70 L 147.60 144.10 L 153.00 141.90 L 158.60 140.30 L 164.40 139.00 L 170.30 138.20 L 176.30 137.90 L 182.40 138.00 L 188.50 138.50 L 194.00 139.50 L 199.30 141.20 L 204.50 143.40 L 209.60 146.20 L 214.40 149.20 L 219.00 152.60 L 225.60 158.20 L 231.40 163.80 L 236.70 169.50 L 244.70 179.40 L 249.40 186.00 Z" fill="#fec272" fill-rule="nonzero" group-id="6,19,38" id="XMLID_152_" node-id="87" stroke="none" target-height="131.70001" target-width="133.4" target-x="116" target-y="137.9"/><path d="M 249.40 186.00 L 247.30 192.90 L 244.90 198.40 L 241.40 204.60 L 236.40 211.70 L 228.80 220.50 L 223.80 225.50 L 218.50 230.20 L 212.20 235.20 L 204.80 240.50 L 195.80 246.30 L 187.70 251.10 L 172.90 258.70 L 160.80 263.70 L 152.60 266.50 L 146.70 268.10 L 137.40 269.70 L 138.30 264.00 L 141.10 256.40 L 145.50 248.20 L 148.40 244.00 L 156.60 233.80 L 161.50 228.80 L 167.60 223.20 L 174.90 217.20 L 182.60 211.50 L 190.00 206.70 L 197.10 202.60 L 211.10 195.90 L 217.40 193.50 L 226.60 190.40 L 234.00 188.50 L 240.80 187.10 L 249.40 186.00 Z" fill="#fcad4f" fill-rule="nonzero" group-id="6,19,38" id="XMLID_421_" node-id="88" stroke="none" target-height="83.70001" target-width="112" target-x="137.4" target-y="186"/><path d="M 244.90 198.40 L 239.20 208.00 L 233.00 215.90 L 228.80 220.50 L 218.50 230.20 L 212.20 235.20 L 204.80 240.50 L 187.70 251.10 L 172.90 258.70 L 160.80 263.70 L 152.60 266.50 L 146.70 268.10 L 149.10 263.20 L 152.80 257.10 L 159.20 248.50 L 163.70 243.50 L 174.00 233.70 L 180.80 228.10 L 187.30 223.30 L 199.60 215.40 L 205.90 212.10 L 217.30 206.80 L 225.60 203.60 L 232.70 201.30 L 244.90 198.40 Z" fill="#f99d3a" fill-rule="nonzero" group-id="6,19,38" id="XMLID_419_" node-id="89" stroke="none" target-height="69.70001" target-width="98.2" target-x="146.7" target-y="198.4"/><path d="M 249.40 186.00 L 247.40 192.90 L 244.90 198.30 L 240.10 206.50 L 236.40 211.60 L 230.40 202.10 L 224.30 193.70 L 218.40 197.80 L 215.50 199.10 L 209.90 200.70 L 205.00 200.80 L 202.60 200.20 L 200.10 199.10 L 197.60 197.50 L 195.40 195.40 L 193.80 193.20 L 192.70 191.00 L 191.50 186.20 L 191.60 180.20 L 192.20 177.10 L 194.60 170.30 L 189.90 166.10 L 181.70 160.50 L 172.10 155.90 L 162.80 153.10 L 149.00 150.80 L 137.60 149.80 L 142.40 146.70 L 147.50 144.10 L 152.90 141.90 L 158.50 140.30 L 164.30 139.00 L 170.20 138.20 L 176.20 137.90 L 182.30 138.00 L 188.40 138.50 L 193.90 139.50 L 199.20 141.20 L 204.50 143.40 L 209.50 146.20 L 214.40 149.20 L 219.00 152.60 L 225.60 158.20 L 231.40 163.80 L 236.70 169.50 L 244.70 179.40 L 249.40 186.00 Z" fill="#ffdbb3" fill-rule="nonzero" group-id="6,19,38" id="XMLID_148_" node-id="90" stroke="none" target-height="73.70001" target-width="111.79999" target-x="137.6" target-y="137.9"/><path d="M 149.30 267.40 L 143.90 268.70 L 137.50 269.60 L 131.10 257.10 L 125.50 243.40 L 122.70 235.30 L 118.70 220.30 L 116.60 207.50 L 116.10 201.00 L 116.10 194.50 L 116.50 188.00 L 117.20 183.00 L 119.60 174.10 L 121.30 170.00 L 125.40 162.60 L 124.80 173.90 L 125.10 189.60 L 126.00 198.50 L 128.80 215.20 L 132.60 229.40 L 137.70 243.50 L 144.90 259.30 L 149.30 267.40 Z" fill="#ffdbb3" fill-rule="nonzero" group-id="6,19,38" id="XMLID_149_" node-id="91" stroke="none" target-height="107" target-width="33.200005" target-x="116.1" target-y="162.6"/></g></g></g><g node-id="165"><g node-id="178"><g node-id="197"><path d="M 263.50 441.60 L 263.40 443.50 L 263.00 444.80 L 262.00 446.00 L 260.10 447.10 L 256.90 448.30 L 252.40 449.30 L 242.40 450.50 L 232.30 451.10 L 223.20 450.80 L 218.90 450.20 L 213.30 448.60 L 210.90 447.00 L 210.40 446.10 L 210.50 445.20 L 211.30 444.10 L 214.20 441.90 L 218.30 439.70 L 227.80 435.60 L 240.00 431.90 L 244.90 430.80 L 253.60 429.50 L 258.40 430.00 L 260.00 430.70 L 261.00 431.60 L 262.50 434.60 L 263.10 436.70 L 263.50 441.60 Z" fill="#1c3177" fill-rule="nonzero" group-id="7,20,39" id="XMLID_227_" node-id="95" stroke="none" target-height="21.600006" target-width="53.100006" target-x="210.4" target-y="429.5"/><path d="M 263.50 441.60 L 263.40 443.50 L 263.00 444.80 L 262.00 446.00 L 260.10 447.10 L 256.90 448.30 L 247.60 450.00 L 232.30 451.10 L 223.20 450.80 L 215.50 449.40 L 213.30 448.60 L 210.90 447.00 L 210.40 446.10 L 210.50 445.20 L 211.30 444.10 L 215.20 445.70 L 218.00 446.40 L 226.30 447.20 L 232.20 447.10 L 240.60 446.50 L 252.50 444.80 L 257.80 443.60 L 263.50 441.60 Z" fill="#384d89" fill-rule="nonzero" group-id="7,20,39" id="XMLID_224_" node-id="96" stroke="none" target-height="9.5" target-width="53.100006" target-x="210.4" target-y="441.6"/><path d="M 261.70 432.90 L 258.10 435.30 L 256.00 436.10 L 252.90 437.10 L 245.50 438.50 L 237.30 439.20 L 233.30 439.20 L 227.90 438.30 L 226.70 437.40 L 226.80 436.60 L 227.70 435.60 L 233.80 433.60 L 244.80 430.80 L 250.60 429.80 L 256.00 429.60 L 258.30 430.00 L 259.90 430.70 L 261.70 432.90 Z" fill="#142966" fill-rule="nonzero" group-id="7,20,39" id="XMLID_226_" node-id="97" stroke="none" target-height="9.600006" target-width="35.000015" target-x="226.7" target-y="429.6"/></g><g node-id="198"><g node-id="211"><path d="M 239.20 384.90 L 240.70 392.50 L 242.70 399.40 L 245.00 406.10 L 250.10 417.30 L 252.40 421.60 L 257.80 430.10 L 255.50 432.50 L 253.60 433.90 L 249.30 435.90 L 245.30 436.60 L 241.50 436.50 L 236.50 435.60 L 229.90 425.90 L 227.00 421.10 L 220.40 408.40 L 217.10 401.00 L 214.20 393.20 L 211.70 384.70 L 209.20 373.00 L 208.50 366.90 L 208.20 359.60 L 208.40 353.00 L 209.00 347.10 L 210.10 341.30 L 213.00 331.70 L 215.70 325.50 L 218.40 320.70 L 221.10 316.60 L 225.50 311.60 L 228.20 310.20 L 233.00 308.80 L 235.90 308.60 L 239.40 308.80 L 244.20 310.20 L 246.90 311.50 L 252.70 315.60 L 255.00 317.90 L 256.80 320.30 L 258.30 323.50 L 253.00 329.20 L 248.70 335.50 L 244.90 342.60 L 242.90 347.30 L 240.90 353.20 L 239.00 362.10 L 238.40 367.40 L 238.20 372.60 L 238.50 378.50 L 239.20 384.90 Z" fill="#e1ecff" fill-rule="nonzero" group-id="7,20,40,53" id="XMLID_232_" node-id="100" stroke="none" target-height="128" target-width="50.09999" target-x="208.2" target-y="308.6"/><path d="M 239.20 384.90 L 240.70 392.50 L 242.70 399.40 L 245.00 406.10 L 250.10 417.30 L 252.40 421.60 L 257.80 430.10 L 255.50 432.50 L 253.60 433.90 L 248.20 425.60 L 245.10 420.00 L 238.60 406.20 L 233.80 392.90 L 231.00 381.60 L 230.00 375.80 L 229.50 369.90 L 229.40 364.10 L 229.80 357.50 L 230.70 351.40 L 231.90 345.70 L 233.60 340.20 L 237.40 330.80 L 240.70 324.50 L 243.80 319.70 L 249.10 312.80 L 252.80 315.60 L 255.10 317.90 L 256.90 320.30 L 258.40 323.50 L 253.10 329.20 L 248.80 335.50 L 245.00 342.60 L 242.90 347.30 L 240.90 353.20 L 239.00 362.10 L 238.40 367.40 L 238.20 372.60 L 238.50 378.50 L 239.20 384.90 Z" fill="#c5dfff" fill-rule="nonzero" group-id="7,20,40,53" id="XMLID_229_" node-id="101" stroke="none" target-height="121.100006" target-width="29" target-x="229.4" target-y="312.8"/><path d="M 241.40 436.40 L 236.40 435.50 L 229.80 425.80 L 223.60 414.90 L 217.00 400.90 L 214.10 393.10 L 211.60 384.60 L 209.10 372.90 L 208.40 366.80 L 208.10 359.50 L 208.30 352.90 L 208.90 347.00 L 211.40 336.10 L 212.90 331.60 L 215.60 325.40 L 218.30 320.60 L 221.00 316.50 L 225.40 311.50 L 221.90 319.50 L 219.90 324.80 L 216.20 338.10 L 214.20 351.10 L 213.90 362.30 L 214.40 369.60 L 215.30 376.50 L 216.60 383.00 L 218.30 389.40 L 222.20 401.00 L 225.80 409.20 L 229.40 416.30 L 233.10 423.00 L 241.40 436.40 Z" fill="#f8fbff" fill-rule="nonzero" group-id="7,20,40,53" id="XMLID_228_" node-id="102" stroke="none" target-height="124.899994" target-width="33.299988" target-x="208.1" target-y="311.5"/></g><g node-id="212"><g node-id="217"><path d="M 222.40 410.40 L 221.50 410.00 L 221.10 409.10 L 221.40 408.10 L 222.40 407.20 L 227.40 404.20 L 230.20 403.20 L 233.20 402.60 L 238.80 402.70 L 242.90 403.50 L 243.40 403.80 L 243.80 404.70 L 243.80 405.20 L 243.10 406.00 L 242.10 406.10 L 236.10 405.20 L 233.60 405.30 L 231.00 405.80 L 227.50 407.20 L 225.30 408.50 L 223.00 410.30 L 222.40 410.40 Z" fill="#c5dfff" fill-rule="nonzero" group-id="7,20,40,54,59" id="XMLID_404_" node-id="105" stroke="none" target-height="7.799988" target-width="22.699997" target-x="221.1" target-y="402.6"/></g><g node-id="218"><path d="M 212.10 378.40 L 211.40 378.20 L 210.70 377.20 L 211.00 376.20 L 211.40 375.80 L 217.90 373.10 L 224.20 372.00 L 227.50 372.10 L 230.50 372.70 L 235.00 374.60 L 237.30 376.10 L 237.40 377.10 L 236.80 378.00 L 235.80 378.10 L 232.10 376.20 L 229.80 375.40 L 227.20 374.80 L 224.30 374.70 L 218.60 375.70 L 212.10 378.40 Z" fill="#c5dfff" fill-rule="nonzero" group-id="7,20,40,54,60" id="XMLID_403_" node-id="107" stroke="none" target-height="6.399994" target-width="26.699997" target-x="210.7" target-y="372"/></g><path d="M 239.50 352.00 L 231.70 346.70 L 226.50 344.50 L 223.70 343.90 L 220.20 343.80 L 217.50 344.10 L 215.10 344.70 L 211.60 346.40 L 210.60 346.30 L 210.00 345.40 L 210.10 344.40 L 210.50 344.00 L 214.10 342.20 L 216.90 341.40 L 220.10 341.00 L 224.10 341.20 L 227.10 341.90 L 230.10 342.90 L 235.20 345.70 L 240.50 349.60 L 240.80 350.00 L 240.90 351.10 L 240.60 351.50 L 239.50 352.00 Z" fill="#c5dfff" fill-rule="nonzero" group-id="7,20,40,54,61" id="XMLID_402_" node-id="109" stroke="none" target-height="11" target-width="30.899994" target-x="210" target-y="341"/></g></g></g></g><g node-id="166"><g node-id="179"><g node-id="199"><g node-id="213"><g node-id="220"><path d="M 326.80 323.60 L 325.20 327.20 L 323.60 329.60 L 321.60 331.80 L 318.90 334.00 L 314.60 336.50 L 309.50 338.30 L 307.60 337.70 L 305.90 336.30 L 305.60 335.20 L 305.80 333.60 L 307.70 329.80 L 312.30 328.70 L 315.60 327.50 L 317.00 326.60 L 321.20 322.70 L 323.60 321.10 L 325.00 321.30 L 326.00 322.10 L 326.80 323.60 Z" fill="#e1ecff" fill-rule="nonzero" group-id="8,21,41,55,62" id="XMLID_191_" node-id="115" stroke="none" target-height="17.199982" target-width="21.199982" target-x="305.6" target-y="321.1"/><path d="M 326.80 323.60 L 325.20 327.20 L 323.60 329.60 L 321.60 331.80 L 318.90 334.00 L 314.60 336.50 L 309.50 338.30 L 307.60 337.70 L 305.90 336.30 L 305.60 335.20 L 311.70 334.20 L 316.80 332.20 L 319.20 330.60 L 321.70 328.30 L 323.60 326.00 L 326.00 322.00 L 326.80 323.60 Z" fill="#c5dfff" fill-rule="nonzero" group-id="8,21,41,55,62" id="XMLID_189_" node-id="116" stroke="none" target-height="16.299988" target-width="21.199982" target-x="305.6" target-y="322"/></g><g node-id="221"><path d="M 323.10 323.10 L 321.20 325.40 L 317.50 328.50 L 314.60 330.10 L 309.50 331.70 L 306.30 331.80 L 305.80 331.30 L 304.80 329.00 L 305.00 327.10 L 305.60 326.20 L 307.80 324.30 L 311.00 323.10 L 313.10 321.70 L 315.70 318.80 L 318.60 313.30 L 319.30 311.40 L 319.80 308.20 L 320.80 307.00 L 321.90 306.80 L 324.40 307.50 L 325.30 308.30 L 326.20 310.80 L 326.20 315.30 L 325.60 317.90 L 324.60 320.50 L 323.10 323.10 Z" fill="#e1ecff" fill-rule="nonzero" group-id="8,21,41,55,63" id="XMLID_194_" node-id="118" stroke="none" target-height="25" target-width="21.400024" target-x="304.8" target-y="306.8"/><path d="M 323.10 323.10 L 321.20 325.40 L 317.50 328.50 L 312.00 331.10 L 309.50 331.70 L 306.30 331.80 L 305.10 329.90 L 304.80 328.00 L 309.50 327.40 L 312.30 326.60 L 315.10 325.40 L 318.40 323.00 L 319.80 321.30 L 322.60 315.90 L 324.00 311.10 L 324.40 307.50 L 325.30 308.30 L 326.20 310.80 L 326.20 315.30 L 325.60 317.90 L 324.60 320.50 L 323.10 323.10 Z" fill="#c5dfff" fill-rule="nonzero" group-id="8,21,41,55,63" id="XMLID_192_" node-id="119" stroke="none" target-height="24.299988" target-width="21.400024" target-x="304.8" target-y="307.5"/></g><g node-id="222"><path d="M 316.40 320.00 L 314.60 322.20 L 311.10 325.10 L 308.30 326.60 L 303.50 328.20 L 300.40 328.20 L 300.00 327.70 L 299.00 325.60 L 299.20 323.80 L 299.70 322.90 L 301.90 321.10 L 304.90 320.00 L 308.10 317.50 L 310.70 313.80 L 312.10 310.70 L 313.50 305.10 L 314.10 304.60 L 315.20 304.40 L 317.60 305.10 L 318.50 305.80 L 319.10 306.90 L 319.40 308.30 L 319.30 312.60 L 318.80 315.10 L 317.80 317.60 L 316.40 320.00 Z" fill="#e1ecff" fill-rule="nonzero" group-id="8,21,41,55,64" id="XMLID_185_" node-id="121" stroke="none" target-height="23.800018" target-width="20.399994" target-x="299" target-y="304.4"/><path d="M 316.40 320.00 L 314.60 322.20 L 311.10 325.10 L 305.80 327.60 L 303.50 328.20 L 300.40 328.20 L 299.20 326.40 L 299.00 324.60 L 303.50 324.00 L 306.10 323.30 L 308.80 322.20 L 311.90 319.90 L 313.30 318.30 L 316.00 313.20 L 317.20 308.60 L 317.70 305.20 L 318.60 305.90 L 319.20 307.00 L 319.50 310.40 L 318.80 315.10 L 317.80 317.60 L 316.40 320.00 Z" fill="#c5dfff" fill-rule="nonzero" group-id="8,21,41,55,64" id="XMLID_183_" node-id="122" stroke="none" target-height="23" target-width="20.5" target-x="299" target-y="305.2"/></g></g><g node-id="214"><path d="M 313.70 328.90 L 313.60 331.00 L 312.90 334.60 L 310.70 338.60 L 310.00 339.50 L 304.10 340.80 L 296.10 341.30 L 287.90 340.50 L 283.50 339.60 L 278.80 338.10 L 273.70 336.10 L 268.80 333.60 L 263.60 330.40 L 258.10 326.20 L 251.50 320.20 L 245.30 313.90 L 239.60 307.30 L 234.60 300.70 L 226.00 288.20 L 220.10 278.20 L 216.40 271.40 L 215.10 268.80 L 214.70 266.90 L 214.70 262.30 L 215.80 258.70 L 217.90 255.40 L 220.70 252.90 L 226.20 250.40 L 229.20 249.70 L 232.00 249.60 L 234.40 250.00 L 238.80 251.90 L 242.50 255.20 L 247.10 264.70 L 255.80 280.70 L 264.00 293.60 L 271.50 303.10 L 277.40 308.70 L 281.70 311.70 L 285.70 313.90 L 289.20 315.40 L 293.00 316.60 L 299.00 317.60 L 303.00 317.60 L 308.00 316.70 L 311.00 320.50 L 312.70 324.30 L 313.70 328.90 Z" fill="#e1ecff" fill-rule="nonzero" group-id="8,21,41,56" id="XMLID_181_" node-id="124" stroke="none" target-height="91.69998" target-width="99.000015" target-x="214.7" target-y="249.6"/><path d="M 251.90 274.20 L 249.10 277.90 L 247.10 279.80 L 244.60 281.80 L 241.70 283.60 L 234.50 286.40 L 225.80 288.10 L 219.90 278.10 L 216.20 271.30 L 214.90 268.70 L 214.30 264.90 L 214.80 260.60 L 216.50 256.70 L 217.90 255.00 L 219.80 253.30 L 222.40 251.60 L 225.60 250.30 L 228.40 249.60 L 230.80 249.40 L 233.20 249.60 L 237.00 250.90 L 239.30 252.30 L 242.20 255.00 L 251.90 274.20 Z" fill="#c5dfff" fill-rule="nonzero" group-id="8,21,41,56" id="XMLID_177_" node-id="125" stroke="none" target-height="38.700012" target-width="37.59999" target-x="214.3" target-y="249.4"/><path d="M 312.20 335.90 L 309.90 339.40 L 307.10 340.10 L 304.00 340.70 L 296.00 341.20 L 287.80 340.40 L 283.40 339.50 L 278.70 338.00 L 273.60 336.00 L 268.70 333.50 L 263.50 330.30 L 258.00 326.10 L 251.40 320.10 L 245.20 313.80 L 239.50 307.20 L 229.80 294.10 L 220.00 278.10 L 215.00 268.70 L 214.60 266.80 L 214.40 264.90 L 215.00 260.40 L 216.80 256.60 L 225.50 274.40 L 232.90 287.30 L 237.20 293.90 L 241.90 300.50 L 246.90 306.70 L 252.10 312.30 L 261.90 321.20 L 270.30 327.20 L 274.30 329.50 L 281.90 332.70 L 290.00 334.50 L 296.20 335.30 L 312.20 335.90 Z" fill="#c5dfff" fill-rule="nonzero" group-id="8,21,41,56" id="XMLID_176_" node-id="126" stroke="none" target-height="84.600006" target-width="97.80002" target-x="214.4" target-y="256.6"/><path d="M 310.70 320.40 L 305.00 321.70 L 301.80 322.00 L 294.80 321.60 L 291.10 320.70 L 286.60 319.10 L 282.20 317.10 L 278.00 314.80 L 274.10 312.10 L 270.10 308.90 L 266.20 305.20 L 258.70 296.40 L 251.60 285.60 L 242.20 267.90 L 234.20 249.90 L 236.70 250.80 L 240.30 253.10 L 242.30 255.10 L 252.00 274.30 L 259.60 287.10 L 263.80 293.50 L 268.20 299.30 L 274.30 306.10 L 277.20 308.60 L 281.50 311.60 L 285.50 313.80 L 289.00 315.30 L 292.80 316.50 L 298.80 317.50 L 302.80 317.50 L 307.80 316.60 L 310.70 320.40 Z" fill="#f8fbff" fill-rule="nonzero" group-id="8,21,41,56" id="XMLID_178_" node-id="127" stroke="none" target-height="72.100006" target-width="76.500015" target-x="234.2" target-y="249.9"/><g node-id="223"><g node-id="224"><path d="M 241.40 304.70 L 237.20 304.10 L 236.30 302.80 L 236.70 301.80 L 237.70 301.40 L 241.40 302.00 L 243.70 301.80 L 246.30 301.20 L 249.40 299.80 L 251.40 298.50 L 254.20 295.70 L 255.70 293.50 L 257.40 289.60 L 258.30 289.10 L 259.60 289.70 L 259.80 290.70 L 258.10 294.90 L 254.90 299.10 L 250.60 302.20 L 248.00 303.50 L 245.60 304.20 L 241.40 304.70 Z" fill="#c5dfff" fill-rule="nonzero" group-id="8,21,41,56,65,66" id="XMLID_398_" node-id="130" stroke="none" target-height="15.600006" target-width="23.499985" target-x="236.3" target-y="289.1"/></g><g node-id="225"><path d="M 260.50 327.10 L 259.90 327.00 L 259.20 326.30 L 259.10 325.70 L 259.50 324.70 L 264.00 323.70 L 266.20 323.00 L 268.30 321.70 L 270.30 319.90 L 271.80 317.50 L 272.70 315.20 L 273.10 312.80 L 273.20 308.60 L 274.40 307.70 L 275.40 308.00 L 275.90 308.90 L 275.80 313.30 L 274.60 317.90 L 272.40 321.60 L 270.60 323.40 L 266.80 325.80 L 265.00 326.40 L 260.50 327.10 Z" fill="#c5dfff" fill-rule="nonzero" group-id="8,21,41,56,65,67" id="XMLID_397_" node-id="132" stroke="none" target-height="19.399994" target-width="16.799988" target-x="259.1" target-y="307.7"/></g><path d="M 282.50 338.80 L 281.70 338.60 L 281.20 337.90 L 281.20 336.90 L 285.00 334.30 L 286.70 332.60 L 288.50 329.70 L 289.20 327.70 L 289.70 322.40 L 289.40 320.30 L 288.30 317.30 L 288.90 315.90 L 289.90 315.70 L 290.80 316.30 L 292.00 319.50 L 292.40 322.00 L 292.40 324.70 L 291.80 328.30 L 290.90 330.90 L 288.20 334.90 L 285.30 337.30 L 282.50 338.80 Z" fill="#c5dfff" fill-rule="nonzero" group-id="8,21,41,56,65,68" id="XMLID_392_" node-id="134" stroke="none" target-height="23.099976" target-width="11.199982" target-x="281.2" target-y="315.7"/></g></g></g><g node-id="200"><path d="M 252.70 262.20 L 251.80 265.20 L 249.70 269.20 L 245.80 274.10 L 243.10 276.50 L 239.60 279.10 L 233.80 282.10 L 227.40 283.80 L 224.30 284.10 L 221.40 284.00 L 217.70 283.40 L 213.80 276.90 L 210.80 269.60 L 209.60 265.20 L 208.80 260.30 L 208.70 257.70 L 209.00 255.40 L 209.70 253.20 L 212.10 249.30 L 213.70 247.60 L 216.40 245.40 L 219.60 243.70 L 224.70 242.20 L 229.90 242.00 L 234.80 243.20 L 237.40 244.60 L 242.20 248.20 L 245.30 251.40 L 250.00 257.60 L 252.70 262.20 Z" fill="#1c3177" fill-rule="nonzero" group-id="8,21,42" id="XMLID_186_" node-id="136" stroke="none" target-height="42.100006" target-width="44" target-x="208.7" target-y="242"/><path d="M 252.70 262.20 L 251.80 265.20 L 248.40 261.00 L 243.30 255.70 L 239.70 252.80 L 235.10 250.20 L 233.80 252.00 L 232.60 252.90 L 231.20 253.60 L 229.10 254.00 L 225.80 253.70 L 223.50 252.90 L 221.60 251.90 L 219.50 249.90 L 218.80 248.20 L 218.70 246.60 L 219.70 243.70 L 222.20 242.80 L 227.40 241.90 L 230.00 242.00 L 234.90 243.20 L 240.00 246.30 L 245.30 251.40 L 250.00 257.60 L 252.70 262.20 Z" fill="#384d89" fill-rule="nonzero" group-id="8,21,42" id="XMLID_184_" node-id="137" stroke="none" target-height="23.300018" target-width="34" target-x="218.7" target-y="241.9"/></g></g></g><g node-id="167"><g node-id="180"><path d="M 131.20 209.30 L 129.80 209.30 L 128.60 209.90 L 127.60 210.80 L 127.10 212.00 L 125.00 222.00 L 124.20 227.30 L 123.40 237.40 L 123.60 238.60 L 124.20 239.70 L 125.10 240.50 L 126.30 241.00 L 127.80 240.90 L 129.00 240.30 L 129.90 239.30 L 130.30 237.90 L 130.90 232.20 L 134.30 213.60 L 134.20 212.10 L 133.60 210.90 L 132.60 209.90 L 131.20 209.30 Z" fill="#1c3177" fill-rule="nonzero" group-id="9,22" id="XMLID_150_" node-id="140" stroke="none" target-height="31.699997" target-width="10.900002" target-x="123.4" target-y="209.3"/><path d="M 113.90 220.00 L 114.60 218.70 L 115.60 217.80 L 116.90 217.50 L 118.40 217.80 L 140.80 226.50 L 141.90 227.20 L 142.70 228.20 L 143.10 229.40 L 143.00 230.70 L 142.40 232.00 L 141.30 232.90 L 140.00 233.30 L 138.60 233.20 L 132.40 231.30 L 124.60 228.30 L 115.20 223.60 L 114.00 222.00 L 113.90 220.00 Z" fill="#1c3177" fill-rule="nonzero" group-id="9,22" id="XMLID_144_" node-id="141" stroke="none" target-height="15.800003" target-width="29.200005" target-x="113.9" target-y="217.5"/></g></g><g node-id="168"><g node-id="181"><path d="M 174.20 184.90 L 171.90 185.10 L 170.90 185.70 L 169.70 186.90 L 168.90 188.50 L 166.40 201.50 L 165.50 208.50 L 164.70 221.60 L 164.90 223.20 L 165.70 224.60 L 167.00 225.60 L 168.50 226.10 L 170.90 225.80 L 172.80 224.30 L 173.30 223.30 L 175.50 204.90 L 178.00 190.40 L 178.10 189.10 L 177.30 186.80 L 175.50 185.30 L 174.20 184.90 Z" fill="#1c3177" fill-rule="nonzero" group-id="10,23" id="XMLID_130_" node-id="144" stroke="none" target-height="41.200012" target-width="13.400009" target-x="164.7" target-y="184.9"/><path d="M 152.00 199.30 L 152.50 198.10 L 154.20 196.50 L 156.50 196.00 L 157.80 196.30 L 172.90 202.10 L 187.00 207.00 L 188.50 207.90 L 189.50 209.10 L 190.00 210.70 L 189.90 212.40 L 188.70 214.50 L 186.60 215.80 L 185.50 216.00 L 176.20 213.50 L 171.40 211.80 L 158.30 206.40 L 153.80 203.90 L 152.20 201.80 L 152.00 199.30 Z" fill="#1c3177" fill-rule="nonzero" group-id="10,23" id="XMLID_132_" node-id="145" stroke="none" target-height="20" target-width="38" target-x="152" target-y="196"/></g></g><g node-id="169"><path d="M 512.70 376.00 L 517.60 378.40 L 521.50 381.80 L 523.10 384.20 L 524.20 386.70 L 525.00 389.30 L 525.70 393.30 L 545.90 383.90 L 540.40 385.00 L 538.10 384.90 L 535.90 384.30 L 533.30 382.50 L 532.30 381.00 L 531.80 379.60 L 531.80 376.60 L 533.60 371.90 L 536.40 367.60 L 540.20 363.40 L 535.50 366.90 L 531.00 369.70 L 526.50 371.80 L 524.40 372.20 L 522.80 372.10 L 520.10 370.50 L 518.10 367.70 L 517.10 364.50 L 512.70 376.00 Z" fill="#fec272" fill-rule="nonzero" group-id="11" id="XMLID_166_" node-id="147" stroke="none" target-height="29.899994" target-width="33.200012" target-x="512.7" target-y="363.4"/></g><g node-id="170"><g node-id="182"><path d="M 493.60 373.70 L 497.20 373.80 L 502.80 332.80 L 490.10 330.40 Z" fill="#d2e9ff" fill-rule="nonzero" group-id="12,24" id="XMLID_167_" node-id="150" stroke="none" target-height="43.399994" target-width="12.699982" target-x="490.1" target-y="330.4"/><path d="M 502.40 373.90 L 510.80 335.50 L 522.90 341.40 L 504.60 374.90 Z" fill="#d2e9ff" fill-rule="nonzero" group-id="12,24" id="XMLID_168_" node-id="151" stroke="none" target-height="39.399994" target-width="20.50003" target-x="502.4" target-y="335.5"/></g></g><g node-id="171"><g node-id="183"><path d="M 102.20 180.10 L 100.10 184.70 L 56.20 171.20 L 62.10 153.90 Z" fill="#fec272" fill-rule="nonzero" group-id="13,25" id="XMLID_140_" node-id="154" stroke="none" target-height="30.800003" target-width="45.999996" target-x="56.2" target-y="153.9"/><path d="M 108.80 164.90 L 104.90 170.50 L 55.30 132.70 L 69.00 118.40 Z" fill="#fec272" fill-rule="nonzero" group-id="13,25" id="XMLID_151_" node-id="155" stroke="none" target-height="52.1" target-width="53.500004" target-x="55.3" target-y="118.4"/></g></g></svg>