<svg width="1608" height="1057" viewBox="0 0 1608 1057" fill="none" xmlns="http://www.w3.org/2000/svg">
<g opacity="0.18" clip-path="url(#clip0_2862_821)">
<rect y="-3" width="1608" height="1079" fill="url(#paint0_linear_2862_821)"/>
<rect width="1265.56" height="2129.44" transform="matrix(0.426941 -0.904279 0.849647 0.527352 -385.203 787.783)" fill="url(#paint1_linear_2862_821)"/>
<rect width="399.05" height="1203.79" transform="matrix(-0.993941 -0.109913 0.0838226 -0.996481 1744.79 1059.42)" fill="url(#paint2_linear_2862_821)"/>
<rect width="562.585" height="1068.57" transform="matrix(0.37432 0.9273 -0.88333 0.468751 692.25 -420)" fill="url(#paint3_linear_2862_821)"/>
<mask id="path-5-inside-1_2862_821" fill="white">
<path d="M79.4774 467.201L7 1076H1607.5L1608 -3C1551.52 93.2165 1609.5 790.786 1501.03 860.085C1409.66 918.462 1219.45 819.613 1165.14 793.077C1020.68 684.452 668.393 443.72 414.873 349.794C161.352 255.869 85.6421 388.93 79.4774 467.201Z"/>
</mask>
<path d="M7 1076L-985.988 957.785L-1119.11 2076H7V1076ZM79.4774 467.201L1072.47 585.416L1074.82 565.607L1076.39 545.719L79.4774 467.201ZM414.873 349.794L762.281 -587.919L762.281 -587.919L414.873 349.794ZM1165.14 793.077L564.133 1592.32L640.418 1649.69L726.178 1691.58L1165.14 793.077ZM1501.03 860.085L2039.43 1702.78L1501.03 860.085ZM1608 -3L2608 -2.53672L2609.71 -3684.69L745.614 -509.251L1608 -3ZM1607.5 1076V2076H2607.04L2607.5 1076.46L1607.5 1076ZM999.988 1194.22L1072.47 585.416L-913.511 348.986L-985.988 957.785L999.988 1194.22ZM1076.39 545.719C1061.03 740.749 963.52 1021.95 674.713 1197.91C367.145 1385.3 99.5874 1299.41 67.4638 1287.51L762.281 -587.919C476.637 -693.746 44.4637 -760.066 -365.88 -510.062C-757.464 -271.487 -895.91 115.382 -917.435 388.683L1076.39 545.719ZM67.4637 1287.51C98.5858 1299.04 182.039 1340.18 303.726 1415.68C414.769 1484.57 514.368 1554.9 564.133 1592.32L1766.14 -6.16773C1615.4 -119.524 1163.35 -439.328 762.281 -587.919L67.4637 1287.51ZM726.178 1691.58C732.623 1694.73 866.655 1764.28 1018.52 1812.15C1095.69 1836.48 1220.79 1869.87 1370.99 1876.89C1513.88 1883.56 1776.44 1870.8 2039.43 1702.78L962.639 17.3924C1179.94 -121.44 1384.46 -124.665 1464.29 -120.937C1551.44 -116.867 1608.45 -98.9006 1619.86 -95.3056C1640.2 -88.8928 1651.97 -82.0422 1604.1 -105.429L726.178 1691.58ZM2039.43 1702.78C2211.69 1592.72 2313.85 1456.48 2369.18 1367.31C2426.24 1275.36 2460.11 1190.39 2480.09 1132.27C2519.18 1018.61 2536.82 913.222 2545.96 847.783C2564.86 712.415 2570.46 567.587 2573.52 470.009C2577.42 345.781 2577.81 282.283 2581.33 215.147C2582.91 185.146 2583.88 184.13 2581.72 199.343C2580.6 207.228 2576.56 234.698 2566.56 273.205C2559.17 301.648 2534.23 394.494 2470.39 503.251L745.614 -509.251C674.709 -388.467 643.601 -278.895 630.804 -229.63C615.392 -170.3 606.702 -117.909 601.552 -81.6065C591.329 -9.5583 586.713 60.2503 584.087 110.26C579.209 203.144 576.727 336.41 574.503 407.265C571.442 504.769 567.669 553.34 565.167 571.263C563.603 582.47 567.539 543.696 588.816 481.83C599.898 449.606 623.831 386.822 669.797 312.75C714.035 241.461 803.936 118.787 962.639 17.3924L2039.43 1702.78ZM1607.5 76H7V2076H1607.5V76ZM608 -3.46328L607.5 1075.54L2607.5 1076.46L2608 -2.53672L608 -3.46328Z" fill="url(#paint4_linear_2862_821)" mask="url(#path-5-inside-1_2862_821)"/>
<rect width="350.887" height="1785.89" transform="matrix(0.992583 -0.121571 0.0927661 0.995688 -126.961 -37.3779)" fill="url(#paint5_linear_2862_821)"/>
</g>
<defs>
<linearGradient id="paint0_linear_2862_821" x1="1608" y1="536.5" x2="-4.83563e-07" y2="536.5" gradientUnits="userSpaceOnUse">
<stop stop-color="#FFB6C3"/>
<stop offset="0.510417" stop-color="#ACA6FF"/>
<stop offset="1" stop-color="#97E6FF"/>
</linearGradient>
<linearGradient id="paint1_linear_2862_821" x1="811.952" y1="888.66" x2="1168.33" y2="881.89" gradientUnits="userSpaceOnUse">
<stop stop-color="#8E85FF" stop-opacity="0.9"/>
<stop offset="0.554167" stop-color="#8986FF" stop-opacity="0.2"/>
<stop offset="1" stop-color="#8986FF" stop-opacity="0"/>
</linearGradient>
<linearGradient id="paint2_linear_2862_821" x1="48.7793" y1="467.591" x2="323.161" y2="446.264" gradientUnits="userSpaceOnUse">
<stop offset="0.182292" stop-color="#FF8499"/>
<stop offset="1" stop-color="#FF8297" stop-opacity="0"/>
</linearGradient>
<linearGradient id="paint3_linear_2862_821" x1="46.5088" y1="399.325" x2="501.847" y2="381.869" gradientUnits="userSpaceOnUse">
<stop offset="0.110034" stop-color="#CCF3FF"/>
<stop offset="1" stop-color="#CCF3FF" stop-opacity="0"/>
</linearGradient>
<linearGradient id="paint4_linear_2862_821" x1="322.402" y1="1931.07" x2="1388.47" y2="20.5153" gradientUnits="userSpaceOnUse">
<stop offset="0.125" stop-color="#79B8FF" stop-opacity="0"/>
<stop offset="0.244056" stop-color="#4B8DFF"/>
<stop offset="0.450756" stop-color="#4A8CFF"/>
<stop offset="0.523925" stop-color="#4A8CFF"/>
<stop offset="0.649095" stop-color="#8F85FF"/>
<stop offset="0.84375" stop-color="#FF8196"/>
<stop offset="1" stop-color="#FF8196" stop-opacity="0"/>
</linearGradient>
<linearGradient id="paint5_linear_2862_821" x1="29.0077" y1="667.39" x2="313.363" y2="663.322" gradientUnits="userSpaceOnUse">
<stop offset="0.110034" stop-color="#7DDBFF"/>
<stop offset="1" stop-color="#7DDBFF" stop-opacity="0"/>
</linearGradient>
<clipPath id="clip0_2862_821">
<rect width="1608" height="1057" fill="white"/>
</clipPath>
</defs>
</svg>
